<svg id="Layer_1" data-name="Layer 1" xmlns="http://www.w3.org/2000/svg" viewBox="0 0 300 149.51005">
    <defs>
    </defs>
    <path d="M297.9538,77.31055a21.92747,21.92747,0,0,0-2.31484-8.09764,21.283,21.283,0,0,0-5.31588-6.70961L250.48349,28.87179Q227.2795,9.28368,196.60085,11.881q-30.39954,2.57158-50.11137,25.92956a23.73966,23.73966,0,0,0-1.61082,2.149L98.93875,94.39728a28.57964,28.57964,0,0,1-20.78314,10.6895,30.36764,30.36764,0,0,1-25.773-49.99089A29.08647,29.08647,0,0,1,72.88424,44.4302a29.41775,29.41775,0,0,1,22.28294,7.04648,21.22534,21.22534,0,0,0,7.50608,4.11428,21.86444,21.86444,0,0,0,8.37039.92257,22.22677,22.22677,0,0,0,8.03193-2.2389,21.04165,21.04165,0,0,0,6.773-5.39306,21.28606,21.28606,0,0,0,4.11361-7.5073,21.83338,21.83338,0,0,0-1.393-16.46935,21.28465,21.28465,0,0,0-5.31585-6.70961Q100.04932-1.39286,69.37064,1.20449,38.971,3.77608,19.25922,27.13409-.58241,50.646,1.98972,81.04926q2.57112,30.40453,25.92537,50.11953,23.3547,19.71536,53.75413,17.1437,30.67668-2.595,50.39288-25.95338l49.75968-58.964a28.83377,28.83377,0,0,1,18.29264-8.28835,29.41789,29.41789,0,0,1,22.283,7.04648L262.237,95.78467a21.226,21.226,0,0,0,7.50608,4.11431,21.86612,21.86612,0,0,0,8.37011.92228,22.22661,22.22661,0,0,0,8.03193-2.23889,21.04164,21.04164,0,0,0,6.77295-5.3931A21.28554,21.28554,0,0,0,297.0317,85.682,21.9286,21.9286,0,0,0,297.9538,77.31055Z"/>
</svg>