<svg id="Layer_1" data-name="Layer 1" xmlns="http://www.w3.org/2000/svg" viewBox="0 0 1129.42229 257.58574">
    <path d="M62.16894,95.77813h99.02051v32.22363H62.16894q-13.14037,0-16.31885,4.28711-4.56372,6.50244-4.564,12.72363,0,10.78712,9.95752,14.52051l5.94677,1.10644h43.28663q39.27538,0,51.3081,30.01075a59.25558,59.25558,0,0,1,3.18115,18.80859q0,29.87109-26.55322,43.14844-10.78711,4.979-20.19141,4.97851H2.83984V225.36211h103.584q11.20239,0,15.21289-9.542l1.10645-6.77637q0-16.31689-19.77686-16.31934H56.22216q-18.39477,0-34.021-14.10644Q9.06078,164.79132,9.063,144.59746q0-18.25488,12.72315-33.88281Q34.36914,95.77911,62.16894,95.77813Z"/>
    <path d="M253.57177,95.77813q38.86011,0,71.6377,33.60644l.83008,1.38281q-31.67139,19.22461-32.5,19.22364-15.35084-21.98877-41.07422-21.98926-24.47827,0-41.07422,23.37207-7.05249,13.00048-7.05274,25.44629,0,26.13867,25.16993,42.457a50.968,50.968,0,0,0,23.64843,6.085q24.479,0,40.79785-21.98828l25.86133,19.22265q-2.35326,4.979-15.62744,16.87207-22.81934,18.12012-50.33984,18.11719h-.96826q-38.03394,0-64.16993-31.53125-16.5952-22.81933-16.59521-49.51074,0-34.15722,26.55273-59.88281Q222.59253,95.78106,253.57177,95.77813Z"/>
    <path d="M333.6455,95.77813h32.22315v56.70214q.27538,52.55421,29.042,69.00977a45.02144,45.02144,0,0,0,17.28711,3.87207h2.21289q17.01049,0,32.91455-14.52051a57.91809,57.91809,0,0,0,13.83008-27.65918q2.48877-8.98828,2.48926-33.1914V95.77813h32.085v52q0,40.65966-7.33008,57.11621A97.77911,97.77911,0,0,1,475.95312,227.16q-15.21533,19.916-43.564,27.93652a57.57773,57.57773,0,0,1-16.31885,2.48926h-5.53223q-23.23315,0-44.25488-16.5957-32.63966-28.62744-32.6377-90.30762Z"/>
    <path d="M705.11132,4.64043V32.992l-33.74511-.27734V257.58574H639.14355V241.68145Q616.5996,257.58672,591.293,257.58574h-1.66015q-39.13917,0-65.9668-34.71289-14.10645-21.8496-14.10644-46.3291,0-39.82909,34.71191-66.52051A83.65015,83.65015,0,0,1,591.293,95.77813q25.44434,0,43.28711,13.13867l4.56348,2.76562V38.93828q-2.07421-34.021,20.88281-34.29785ZM541.78222,176.82012q0,25.72411,24.06348,41.76562a48.64312,48.64312,0,0,0,25.44726,6.77637q24.063,0,40.10547-22.26563,7.74464-12.583,7.74512-25.16992V175.4373q0-22.67871-21.29785-38.86132a48.9497,48.9497,0,0,0-27.93555-8.57422q-23.6499,0-39.96777,21.98926A49.35223,49.35223,0,0,0,541.78222,176.82012Z"/>
    <path d="M766.65332,95.77813q35.68065,0,61.542,28.62792,19.084,24.063,19.085,52.1377a100.97391,100.97391,0,0,1-1.66016,16.18066H720.5996q5.94581,17.84034,23.78711,27.38282a48.25251,48.25251,0,0,0,21.85157,5.25488q19.084,0,34.43554-14.10547l22.542,22.542v.415q-24.47754,23.373-56.5625,23.37207h-.69239q-36.0952,0-61.67969-28.62793-19.08545-23.92383-19.085-52.13769,0-35.95606,28.627-61.957Q737.05712,95.7791,766.65332,95.77813ZM720.5996,160.63945H811.876q-5.39355-16.18067-21.85058-26.55273a54.103,54.103,0,0,0-24.06446-6.085q-25.72266,0-42.17969,24.75488Z"/>
    <path d="M893.332,114.17168h.415q25.72411-18.39111,64.30859-18.39355v32.22363q-46.74756,0-60.85059,32.63769a47.329,47.329,0,0,0-3.873,17.70215v79.24414H861.10937V176.68242Q863.87353,137.13164,893.332,114.17168Z"/>
    <path d="M1046.42773,95.77813q31.80762,0,56.70117,23.7871,23.6499,25.03272,23.64942,57.25489,0,33.74561-26.13868,59.46777-24.063,21.29883-54.48828,21.29785h-.69238q-36.09522,0-61.67969-28.62793-19.08544-23.92383-19.085-52.13769,0-24.47754,14.52051-46.3291Q1005.21436,95.78008,1046.42773,95.77813ZM997.332,174.05449v2.07422l-.415.415.415.27637V179.033q0,19.63916,18.66992,36.37207,14.24268,9.958,29.73437,9.957,23.92383,0,39.69043-20.46777,9.26514-13.69044,9.2666-28.07422,0-25.169-23.37207-41.76563a53.53556,53.53556,0,0,0-26.27636-7.05273q-24.20363,0-40.38282,22.68066Q997.33057,163.12919,997.332,174.05449Z"/>
    <path d="M64.71386,21.58574H89.73828c23.17041,0,36.60937,13.34571,36.60937,32.06739v.18554c0,18.72168-13.62451,32.624-36.98047,32.624H64.71386ZM90.01611,70.52129c10.751,0,17.88769-5.93164,17.88769-16.4043v-.18554c0-10.38086-7.13672-16.40528-17.88769-16.40528H82.69433V70.52129Z"/>
    <path d="M134.5957,18.80449h18.35107V31.78008H134.5957Zm.37109,17.51758h17.60938V86.4627H134.96679Z"/>
    <path d="M161.936,95.73125l5.65381-11.67871a34.60426,34.60426,0,0,0,17.5166,4.72754c8.80518,0,13.16113-4.35645,13.16113-12.32715V74.50664c-3.522,4.07813-8.15625,7.50781-15.478,7.50781-12.32666,0-22.24366-8.89843-22.24366-23.26367v-.18555c0-14.458,10.10254-23.35546,21.6875-23.35546,7.50733,0,11.95606,3.05859,15.75586,7.04394V36.32207h17.60987v38.0918c0,9.17578-2.03907,15.57031-6.4878,20.01953-4.5415,4.541-11.58545,7.04394-22.0581,7.04394A53.71533,53.71533,0,0,1,161.936,95.73125Zm36.33154-36.98047v-.18555c0-5.56054-4.26367-9.63867-10.19531-9.63867-6.02393,0-10.2876,4.1709-10.2876,9.73145v.18554c0,5.56055,4.26367,9.63868,10.2876,9.63868C194.0039,68.48223,198.26757,64.31133,198.26757,58.75078Z"/>
    <path d="M225.05175,18.80449h18.35108V31.78008H225.05175Zm.3711,17.51758h17.60937V86.4627H225.42285Z"/>
    <path d="M255.91357,70.89238V50.50176h-5.93164V36.32207h5.93164V23.6248h17.60986V36.32207h11.67774V50.50176H273.52343V67.4627c0,3.52246,1.5752,5.00488,4.81934,5.00488a15.44288,15.44288,0,0,0,6.67285-1.668V84.60918a25.11775,25.11775,0,0,1-12.23389,2.87305C262.21582,87.48223,255.91357,82.84844,255.91357,70.89238Z"/>
    <path d="M290.29882,72.09746v-.18555c0-10.38086,7.87793-15.75586,19.64844-15.75586a38.45436,38.45436,0,0,1,12.04834,1.94629v-.834c0-5.19043-3.24365-8.15625-10.00928-8.15625a35.31534,35.31534,0,0,0-13.80957,2.78027L294.562,39.47344a50.36184,50.36184,0,0,1,20.29736-3.89356c8.99023,0,15.10693,2.13184,19.09229,6.11719,3.80029,3.708,5.37548,8.89746,5.37548,15.94141V86.4627H321.90332V81.27227A18.91054,18.91054,0,0,1,307.1665,87.575C297.6206,87.575,290.29882,82.10625,290.29882,72.09746Zm31.88233-3.80078V65.98027a18.43262,18.43262,0,0,0-6.8584-1.29785c-5.09766,0-8.06348,2.502-8.06348,6.21v.18555c0,3.42871,2.59522,5.46777,6.21,5.46777C318.5664,76.5457,322.18115,73.30156,322.18115,68.29668Z"/>
    <path d="M348.688,18.80449h17.60938V86.4627H348.688Z"/>
</svg>